<svg width="61" height="20" viewBox="0 0 61 20" fill="none" xmlns="http://www.w3.org/2000/svg">
<path d="M21.5105 19.6667L24.7211 0.333333H29.5368L26.3263 19.6667H21.5105ZM44.3053 0.666667C43.3421 0.333333 41.7368 0 39.8105 0C34.9947 0 31.4632 2.66667 31.4632 6.33333C31.4632 9 34.0316 10.6667 35.6368 11.6667C37.8842 12.6667 38.5263 13.3333 38.5263 14C38.5263 15.3333 36.9211 16 35.6368 16C33.7105 16 32.7474 15.6667 31.1421 15L30.1789 14.6667L29.5368 19C30.8211 19.6667 32.7474 20 34.9947 20C40.1316 20 43.6632 17.3333 43.6632 13.3333C43.6632 11 42.3789 9.33333 39.4895 8C37.8842 7 36.6 6.66667 36.6 5.66667C36.6 5 37.5632 4 39.4895 4C41.0947 4 42.3789 4.33333 43.3421 4.66667L43.6632 5L44.3053 0.666667ZM51.0474 13C51.3684 12 52.9737 7.66667 52.9737 7.66667L53.6158 5.66667L53.9368 7.33333C53.9368 7.33333 54.9 12 55.2211 13H51.0474ZM57.1474 0.333333H53.2947C52.0105 0.333333 51.3684 0.666667 50.7263 2L43.3421 19.6667H48.4789C48.4789 19.6667 49.4421 17.3333 49.4421 16.6667H55.8632C55.8632 17.3333 56.5053 19.6667 56.5053 19.6667H61L57.1474 0.333333ZM17.3368 0.333333L12.5211 13.6667L11.8789 11C11.2368 7.66667 8.34737 4.33333 5.13684 2.66667L9.63158 19.6667H14.7684L22.4737 0.333333H17.3368ZM8.02632 0.333333H0V0.666667C6.1 2.33333 10.2737 6 11.8789 10.6667L10.2737 2C9.95263 0.666667 8.98947 0.333333 8.02632 0.333333Z" fill="#747474"/>
</svg>
