<svg width="177" height="113" viewBox="0 0 177 113" fill="none" xmlns="http://www.w3.org/2000/svg">
<path d="M0 113V0H158.604L177 71.6828L0 113Z" fill="#D4A465"/>
<path d="M22.3497 37.8757V55.4431H25.7661V40.804H35.8792V55.4166H39.4317L39.4287 37.8757H22.3497Z" fill="black"/>
<path d="M49.7676 26.1066H52.0514C53.0045 26.1066 53.7596 26.3214 54.3135 26.7485C54.8705 27.1755 55.1459 27.7246 55.1459 28.3957C55.1459 29.0694 54.8674 29.6211 54.3135 30.0508C53.7565 30.4779 53.0045 30.6927 52.0514 30.6927H51.1385V32.0614H49.7676V26.1066ZM51.1385 29.5867H52.1597C52.6424 29.5867 53.0447 29.4885 53.3666 29.2896C53.6884 29.0906 53.8493 28.7936 53.8493 28.3957C53.8493 28.0164 53.6884 27.7246 53.3635 27.5204C53.0385 27.3161 52.6393 27.2153 52.1628 27.2153H51.1416L51.1385 29.5867Z" fill="black"/>
<path d="M61.1432 27.8095V31.5177C61.1432 32.1516 60.9173 32.6741 60.4686 33.08C60.0199 33.4858 59.4165 33.6874 58.6614 33.6874C57.8135 33.6874 57.0801 33.4672 56.458 33.0243L57.1729 32.3691C57.7021 32.5946 58.1972 32.706 58.6614 32.7007C59.0327 32.7007 59.3267 32.6211 59.5433 32.4593C59.763 32.2975 59.8714 32.0667 59.8714 31.767V31.4938C59.5681 31.828 59.1132 31.9951 58.5128 31.9951C57.8104 31.9951 57.275 31.8068 56.9006 31.4328C56.5261 31.0588 56.3405 30.5548 56.3405 29.9182V27.8095H57.5999V29.8599C57.5999 30.5866 57.9713 30.95 58.7109 30.95C59.0822 30.95 59.37 30.8519 59.5743 30.6556C59.7785 30.4593 59.8806 30.1649 59.8806 29.767V27.8095H61.1432Z" fill="black"/>
<path d="M66.1843 26.1066H67.4437C67.4437 26.531 67.3045 26.8493 67.0229 27.0588C66.7413 27.2684 66.2647 27.3745 65.5901 27.3745H65.2714C64.801 27.3745 64.4296 27.4673 64.1604 27.6503C63.8912 27.8333 63.755 28.0959 63.755 28.4381V28.6264C63.8943 28.4222 64.1016 28.2577 64.3739 28.1331C64.6493 28.0084 64.9464 27.9447 65.2714 27.9447C65.9676 27.9447 66.5247 28.1331 66.9486 28.5071C67.3726 28.8811 67.583 29.3585 67.583 29.9368C67.583 30.5601 67.3478 31.0826 66.8774 31.5017C66.4071 31.9208 65.7912 32.1304 65.0331 32.1304C64.3058 32.1304 63.6993 31.9208 63.2166 31.5017C62.7338 31.0826 62.4924 30.5283 62.4924 29.8439V28.8227C62.4924 28.0747 62.7431 27.4938 63.2413 27.0827C63.7395 26.6715 64.4513 26.4647 65.3704 26.4647C65.6891 26.4647 65.9026 26.4381 66.0141 26.3877C66.1286 26.3373 66.1843 26.2418 66.1843 26.1066ZM65.0331 28.9394C64.6896 28.9394 64.3894 29.0429 64.1356 29.2471C63.8819 29.4514 63.755 29.706 63.755 30.0137C63.755 30.3267 63.8819 30.5813 64.1326 30.7829C64.3832 30.9845 64.6834 31.0853 65.0362 31.0853C65.3859 31.0853 65.6891 30.9845 65.9398 30.7829C66.1904 30.5813 66.3173 30.324 66.3173 30.0137C66.3173 29.7086 66.1873 29.4514 65.9305 29.2471C65.6675 29.0429 65.3704 28.9394 65.0331 28.9394Z" fill="black"/>
<path d="M70.789 29.3983L69.4305 32.0614H68.0906L70.3837 27.8069H71.1975L73.4906 32.0614H72.1599L70.789 29.3983Z" fill="black"/>
<path d="M76.5573 27.7484C77.6094 27.7484 78.3366 28.1303 78.742 28.8969C78.841 29.0852 78.8967 29.3107 78.9122 29.5733C78.9277 29.8359 78.8968 30.056 78.8225 30.2311H75.3597C75.3597 30.5096 75.4772 30.7271 75.7124 30.8863C75.9476 31.0454 76.2385 31.125 76.5913 31.125C77.1421 31.125 77.6404 31.0269 78.0891 30.8279L78.7544 31.4486C78.0581 31.8916 77.3371 32.1117 76.5913 32.1117C75.8455 32.1117 75.2359 31.9075 74.7655 31.4963C74.2951 31.0852 74.0599 30.5653 74.0599 29.934C74.0599 29.3107 74.2889 28.7908 74.7438 28.3717C75.1956 27.9553 75.8022 27.7484 76.5573 27.7484ZM76.5573 28.7351C76.2323 28.7351 75.9631 28.8173 75.7496 28.9818C75.5329 29.1462 75.4215 29.3372 75.4061 29.5521H77.6806C77.6806 29.4274 77.6404 29.3133 77.5599 29.2126C77.3618 28.8943 77.0276 28.7351 76.5573 28.7351Z" fill="black"/>
<path d="M80.4069 27.8069H83.0063C84.1451 27.8069 84.7145 28.1915 84.7145 28.9633C84.7145 29.4116 84.4886 29.7034 84.0399 29.8387C84.6433 29.958 84.9435 30.2763 84.9435 30.7909C84.9435 31.2392 84.7919 31.5628 84.4855 31.7617C84.1822 31.9606 83.6902 32.0588 83.0156 32.0588H80.4069V27.8069ZM81.6694 28.7273V29.4832H82.9382C83.2817 29.4779 83.455 29.3506 83.455 29.1013C83.455 28.8519 83.2755 28.7273 82.9196 28.7273H81.6694ZM81.6694 31.141H83.0496C83.4736 31.141 83.684 30.9925 83.684 30.6981C83.684 30.4142 83.4798 30.271 83.0682 30.2631H81.6694V31.141Z" fill="black"/>
<path d="M88.595 27.7565C89.3903 27.7565 90.0401 28.0164 90.5507 28.539L89.7957 29.2366C89.4305 28.9474 89.0313 28.8015 88.595 28.8015C88.2453 28.8015 87.942 28.9076 87.6913 29.1172C87.4407 29.3267 87.3138 29.5999 87.3138 29.9342C87.3138 30.2684 87.4407 30.5416 87.6913 30.7511C87.942 30.9607 88.2422 31.0668 88.595 31.0668C89.0313 31.0668 89.4305 30.9209 89.7957 30.6318L90.5507 31.3294C90.0401 31.8519 89.3903 32.1119 88.595 32.1119C87.8863 32.1119 87.286 31.8997 86.7939 31.4753C86.3019 31.0509 86.0543 30.5363 86.0543 29.9342C86.0543 29.332 86.3019 28.8201 86.7939 28.3957C87.286 27.9687 87.8894 27.7565 88.595 27.7565Z" fill="black"/>
<path d="M95.3567 32.0614L94.5026 30.9288C94.3448 30.7193 94.2025 30.5761 94.0818 30.5044C93.958 30.4302 93.7847 30.393 93.5619 30.393H93.2153V32.0614H91.9558V27.8069H93.2153V29.3559H93.5217C93.7476 29.3559 93.9178 29.3188 94.0385 29.2445C94.1591 29.1702 94.2953 29.0297 94.4562 28.8201L95.2299 27.8069H96.6286L95.5177 29.2445C95.267 29.5787 95.0318 29.7856 94.8121 29.8652C95.038 29.9262 95.2887 30.141 95.5672 30.5044L96.7586 32.0614H95.3567Z" fill="black"/>
<path d="M102.462 32.0588H101.202V29.5495L98.6616 32.0588H97.8478V27.8042H99.1073V30.3135L101.648 27.8042H102.462V32.0588Z" fill="black"/>
<path d="M108.765 32.0587H107.506V29.5495L104.965 32.0587H104.151V27.8041H105.411V30.3134L107.952 27.8041H108.765V32.0587ZM107.577 27.0694C107.277 27.3161 106.909 27.4407 106.469 27.4407C106.033 27.4407 105.665 27.3187 105.361 27.0721C105.061 26.8254 104.91 26.5177 104.91 26.149H105.782C105.782 26.3028 105.847 26.4302 105.98 26.5362C106.113 26.6423 106.274 26.6927 106.466 26.6927C106.658 26.6927 106.822 26.6397 106.958 26.5362C107.094 26.4302 107.162 26.3028 107.162 26.149H108.026C108.029 26.515 107.88 26.8227 107.577 27.0694Z" fill="black"/>
<path d="M55.6565 37.873H42.7552V55.4166H46.3078V45.1939H55.6565C58.0115 45.1939 59.927 43.552 59.927 41.5335C59.927 39.5149 58.0115 37.873 55.6565 37.873ZM55.6565 42.2656H46.3078V40.8014H55.6565C56.1269 40.8014 56.5106 41.1303 56.5106 41.5335C56.5106 41.9367 56.13 42.2656 55.6565 42.2656Z" fill="black"/>
<path d="M70.0803 37.7855V42.1515L65.0919 46.6739V37.8863H61.5393V55.4298H65.0919V50.9338L70.0803 46.414V55.3264H73.6329V37.7855H70.0803Z" fill="black"/>
<path d="M108.122 55.7216C102.224 55.7216 97.427 51.6103 97.427 46.5546C97.427 41.499 102.224 37.3876 108.122 37.3876C114.02 37.3876 118.817 41.499 118.817 46.5546C118.817 51.6076 114.02 55.7216 108.122 55.7216ZM108.122 40.316C104.108 40.316 100.843 43.1144 100.843 46.5546C100.843 49.9949 104.108 52.7933 108.122 52.7933C112.135 52.7933 115.4 49.9949 115.4 46.5546C115.4 43.1144 112.135 40.316 108.122 40.316Z" fill="black"/>
<path d="M92.8006 46.0427C92.3642 45.6396 91.8351 45.2099 91.1976 44.7908C92.8903 44.4725 94.0786 43.1064 94.0786 41.5017C94.0786 39.4831 92.1631 37.8412 89.8081 37.8412L76.9409 37.8863V55.4299H91.7453C94.2581 55.4299 95.8178 54.17 95.8178 52.1435C95.8178 50.5414 95.0256 48.1011 92.8006 46.0427ZM90.6622 41.5017C90.6622 41.9049 90.2785 42.2338 89.8081 42.2338H80.4935V40.7696H89.8081C90.2785 40.7696 90.6622 41.0958 90.6622 41.5017ZM92.2745 52.353C92.2064 52.3742 92.0455 52.4087 91.7453 52.4087H80.4935V45.1117L82.0717 45.1144C90.4085 45.1144 92.2962 50.4167 92.2962 52.1408C92.2962 52.2496 92.2838 52.3159 92.2745 52.353Z" fill="black"/>
<path d="M134.249 46.5016C133.64 45.9393 132.786 45.3663 131.699 44.8544C133.683 44.7616 135.141 43.2762 135.141 41.499C135.141 39.4805 133.225 37.8386 130.87 37.8386H121.413L121.874 40.7669H130.87C131.34 40.7669 131.724 41.0958 131.724 41.499C131.724 41.9022 131.34 42.2311 130.87 42.2311H124.068V45.1435C131.542 45.5546 133.278 50.4883 133.278 52.1408C133.278 52.2469 133.265 52.3158 133.256 52.353C133.188 52.3742 133.027 52.4087 132.727 52.4087H120.138L119.751 55.4272H132.727C135.24 55.4272 136.799 54.1673 136.799 52.1408C136.802 50.5413 136.477 48.5599 134.249 46.5016Z" fill="black"/>
</svg>
