<svg width="260.79" height="166" viewBox="0 0 260.79 166" fill="none" xmlns="http://www.w3.org/2000/svg">
<path d="M258.576 105.85L231.289 0.000163445L-2.21142 0.000191938L-2.21142 166L258.576 105.85Z" fill="#D4A465"/>
<path d="M29.8666 55.0396V80.173H34.7544V59.2291H49.223V80.1351H54.3056L54.3012 55.0396H29.8666Z" fill="black"/>
<path d="M69.093 38.2014H72.3604C73.724 38.2014 74.8043 38.5088 75.5968 39.1198C76.3937 39.7308 76.7878 40.5163 76.7878 41.4764C76.7878 42.4403 76.3893 43.2296 75.5968 43.8444C74.7999 44.4554 73.724 44.7628 72.3604 44.7628H71.0543V46.7209H69.093V38.2014ZM71.0543 43.1803H72.5154C73.206 43.1803 73.7816 43.0399 74.242 42.7553C74.7025 42.4707 74.9327 42.0456 74.9327 41.4764C74.9327 40.9337 74.7025 40.5163 74.2376 40.2241C73.7727 39.9319 73.2016 39.7877 72.5198 39.7877H71.0588L71.0543 43.1803Z" fill="black"/>
<path d="M85.368 40.6377V45.9429C85.368 46.8499 85.0448 47.5975 84.4028 48.1781C83.7608 48.7587 82.8975 49.0471 81.8172 49.0471C80.6041 49.0471 79.5548 48.7322 78.6649 48.0984L79.6877 47.1611C80.4447 47.4837 81.1531 47.643 81.8172 47.6355C82.3485 47.6355 82.7691 47.5216 83.079 47.2901C83.3934 47.0586 83.5483 46.7285 83.5483 46.2997V45.9088C83.1144 46.3869 82.4636 46.626 81.6047 46.626C80.5997 46.626 79.8338 46.3566 79.2981 45.8215C78.7623 45.2864 78.4967 44.5654 78.4967 43.6546V40.6377H80.2986V43.5711C80.2986 44.6109 80.8299 45.1308 81.8881 45.1308C82.4193 45.1308 82.8311 44.9904 83.1233 44.7096C83.4155 44.4288 83.5616 44.0075 83.5616 43.4383V40.6377H85.368Z" fill="black"/>
<path d="M92.5801 38.2014H94.382C94.382 38.8086 94.1828 39.264 93.7799 39.5638C93.377 39.8636 92.6952 40.0154 91.73 40.0154H91.274C90.601 40.0154 90.0697 40.1482 89.6846 40.41C89.2994 40.6719 89.1046 41.0476 89.1046 41.5371V41.8066C89.3038 41.5143 89.6004 41.2791 89.9901 41.1007C90.3841 40.9223 90.8091 40.8313 91.274 40.8313C92.2701 40.8313 93.0671 41.1007 93.6736 41.6358C94.2802 42.1709 94.5812 42.8539 94.5812 43.6812C94.5812 44.573 94.2447 45.3206 93.5718 45.9202C92.8988 46.5198 92.0178 46.8196 90.9331 46.8196C89.8926 46.8196 89.0249 46.5198 88.3342 45.9202C87.6436 45.3206 87.2982 44.5275 87.2982 43.5484V42.0874C87.2982 41.0172 87.6568 40.1861 88.3696 39.5979C89.0824 39.0097 90.1007 38.7137 91.4157 38.7137C91.8717 38.7137 92.1772 38.6758 92.3366 38.6037C92.5004 38.5316 92.5801 38.395 92.5801 38.2014ZM90.9331 42.2543C90.4416 42.2543 90.0122 42.4023 89.6491 42.6946C89.2861 42.9868 89.1046 43.3511 89.1046 43.7913C89.1046 44.2391 89.2861 44.6034 89.6447 44.8918C90.0033 45.1802 90.4328 45.3244 90.9375 45.3244C91.4378 45.3244 91.8717 45.1802 92.2303 44.8918C92.5889 44.6034 92.7704 44.2353 92.7704 43.7913C92.7704 43.3549 92.5845 42.9868 92.217 42.6946C91.8407 42.4023 91.4157 42.2543 90.9331 42.2543Z" fill="black"/>
<path d="M99.1682 42.911L97.2245 46.721H95.3075L98.5882 40.634H99.7526L103.033 46.721H101.129L99.1682 42.911Z" fill="black"/>
<path d="M107.421 40.5503C108.926 40.5503 109.966 41.0968 110.546 42.1935C110.688 42.4629 110.768 42.7855 110.79 43.1612C110.812 43.5369 110.768 43.8518 110.661 44.1023H105.707C105.707 44.5008 105.876 44.8119 106.212 45.0396C106.548 45.2673 106.965 45.3812 107.469 45.3812C108.257 45.3812 108.97 45.2408 109.612 44.9561L110.564 45.8441C109.568 46.4779 108.536 46.7929 107.469 46.7929C106.402 46.7929 105.53 46.5007 104.857 45.9125C104.184 45.3243 103.848 44.5805 103.848 43.6773C103.848 42.7855 104.175 42.0417 104.826 41.4421C105.473 40.8463 106.34 40.5503 107.421 40.5503ZM107.421 41.962C106.956 41.962 106.571 42.0796 106.265 42.3149C105.955 42.5502 105.796 42.8234 105.774 43.1308H109.028C109.028 42.9525 108.97 42.7893 108.855 42.6451C108.572 42.1897 108.094 41.962 107.421 41.962Z" fill="black"/>
<path d="M112.928 40.634H116.647C118.277 40.634 119.091 41.1843 119.091 42.2886C119.091 42.9299 118.768 43.3474 118.126 43.5409C118.989 43.7117 119.419 44.1671 119.419 44.9033C119.419 45.5446 119.202 46.0076 118.764 46.2922C118.33 46.5768 117.626 46.7172 116.661 46.7172H112.928V40.634ZM114.735 41.9509V43.0324H116.55C117.041 43.0248 117.289 42.8427 117.289 42.4859C117.289 42.1292 117.032 41.9509 116.523 41.9509H114.735ZM114.735 45.4042H116.709C117.316 45.4042 117.617 45.1917 117.617 44.7705C117.617 44.3644 117.325 44.1595 116.736 44.1481H114.735V45.4042Z" fill="black"/>
<path d="M124.643 40.5618C125.781 40.5618 126.71 40.9337 127.441 41.6813L126.361 42.6793C125.838 42.2657 125.267 42.057 124.643 42.057C124.143 42.057 123.709 42.2087 123.35 42.5085C122.991 42.8083 122.81 43.1992 122.81 43.6774C122.81 44.1555 122.991 44.5464 123.35 44.8462C123.709 45.146 124.138 45.2978 124.643 45.2978C125.267 45.2978 125.838 45.0891 126.361 44.6754L127.441 45.6735C126.71 46.4211 125.781 46.793 124.643 46.793C123.629 46.793 122.77 46.4894 122.066 45.8822C121.362 45.275 121.008 44.5388 121.008 43.6774C121.008 42.8159 121.362 42.0835 122.066 41.4763C122.77 40.8654 123.633 40.5618 124.643 40.5618Z" fill="black"/>
<path d="M134.317 46.721L133.095 45.1006C132.869 44.8008 132.665 44.5959 132.493 44.4934C132.316 44.3872 132.068 44.334 131.749 44.334H131.253V46.721H129.451V40.634H131.253V42.8502H131.691C132.015 42.8502 132.258 42.7971 132.431 42.6909C132.603 42.5846 132.798 42.3835 133.028 42.0837L134.135 40.634H136.136L134.547 42.6909C134.188 43.169 133.852 43.465 133.538 43.5789C133.861 43.6661 134.219 43.9735 134.618 44.4934L136.322 46.721H134.317Z" fill="black"/>
<path d="M144.482 46.7171H142.68V43.1272L139.045 46.7171H137.881V40.6301H139.683V44.2201L143.318 40.6301H144.482V46.7171Z" fill="black"/>
<path d="M153.501 46.7172H151.699V43.1272L148.064 46.7172H146.899V40.6302H148.701V44.2202L152.336 40.6302H153.501V46.7172ZM151.801 39.579C151.371 39.932 150.844 40.1103 150.216 40.1103C149.591 40.1103 149.064 39.9357 148.631 39.5828C148.201 39.2299 147.984 38.7897 147.984 38.2622H149.233C149.233 38.4823 149.326 38.6645 149.516 38.8163C149.706 38.9681 149.937 39.0402 150.211 39.0402C150.486 39.0402 150.72 38.9643 150.915 38.8163C151.11 38.6645 151.207 38.4823 151.207 38.2622H152.443C152.447 38.7859 152.234 39.2261 151.801 39.579Z" fill="black"/>
<path d="M77.5183 55.0356H59.0607V80.135H64.1433V65.5095H77.5183C80.8875 65.5095 83.6281 63.1605 83.6281 60.2726C83.6281 57.3847 80.8875 55.0356 77.5183 55.0356ZM77.5183 61.32H64.1433V59.2252H77.5183C78.1913 59.2252 78.7403 59.6958 78.7403 60.2726C78.7403 60.8494 78.1957 61.32 77.5183 61.32Z" fill="black"/>
<path d="M98.1543 54.9104V61.1568L91.0174 67.627V55.0546H85.9348V80.1539H91.0174V73.7216L98.1543 67.2551V80.0059H103.237V54.9104H98.1543Z" fill="black"/>
<path d="M152.58 80.5713C144.141 80.5713 137.279 74.6892 137.279 67.4562C137.279 60.2231 144.141 54.3411 152.58 54.3411C161.018 54.3411 167.881 60.2231 167.881 67.4562C167.881 74.6854 161.018 80.5713 152.58 80.5713ZM152.58 58.5306C146.837 58.5306 142.167 62.5342 142.167 67.4562C142.167 72.3781 146.837 76.3817 152.58 76.3817C158.322 76.3817 162.993 72.3781 162.993 67.4562C162.993 62.5342 158.322 58.5306 152.58 58.5306Z" fill="black"/>
<path d="M130.66 66.724C130.036 66.1472 129.279 65.5324 128.367 64.9328C130.788 64.4774 132.488 62.5231 132.488 60.2272C132.488 57.3393 129.748 54.9902 126.379 54.9902L107.97 55.0547V80.1541H129.15C132.745 80.1541 134.977 78.3515 134.977 75.4522C134.977 73.1601 133.843 69.6688 130.66 66.724ZM127.601 60.2272C127.601 60.804 127.052 61.2746 126.379 61.2746H113.052V59.1798H126.379C127.052 59.1798 127.601 59.6466 127.601 60.2272ZM129.907 75.752C129.81 75.7824 129.58 75.8317 129.15 75.8317H113.052V65.392L115.31 65.3958C127.238 65.3958 129.938 72.9818 129.938 75.4484C129.938 75.604 129.921 75.6989 129.907 75.752Z" fill="black"/>
<path d="M189.96 67.3804C189.088 66.5759 187.866 65.7562 186.312 65.0238C189.15 64.891 191.235 62.7658 191.235 60.2233C191.235 57.3354 188.495 54.9863 185.125 54.9863H171.595L172.255 59.1759H185.125C185.798 59.1759 186.347 59.6464 186.347 60.2233C186.347 60.8001 185.798 61.2707 185.125 61.2707H175.394V65.4374C186.086 66.0256 188.57 73.0841 188.57 75.4483C188.57 75.6001 188.552 75.6988 188.539 75.7519C188.441 75.7823 188.211 75.8316 187.782 75.8316H169.771L169.218 80.1502H187.782C191.377 80.1502 193.608 78.3476 193.608 75.4483C193.613 73.16 193.148 70.3252 189.96 67.3804Z" fill="black"/>
</svg>
