<svg width="177" height="72" viewBox="0 0 177 72" fill="none" xmlns="http://www.w3.org/2000/svg">
<path d="M0 113V0H158.604L177 71.6828L0 113Z" fill="#D4A465"/>
<path d="M30.3497 32.4105V50.7762H33.9214V35.4719H44.494V50.7485H48.208L48.2047 32.4105H30.3497Z" fill="black"/>
<path d="M59.0134 20.1066H61.401C62.3974 20.1066 63.1868 20.3312 63.7659 20.7777C64.3482 21.2241 64.6362 21.7981 64.6362 22.4997C64.6362 23.2041 64.345 23.7808 63.7659 24.2301C63.1836 24.6765 62.3974 24.9011 61.401 24.9011H60.4466V26.332H59.0134V20.1066ZM60.4466 23.7448H61.5142C62.0189 23.7448 62.4395 23.6422 62.776 23.4342C63.1124 23.2262 63.2806 22.9157 63.2806 22.4997C63.2806 22.1032 63.1124 21.7981 62.7727 21.5846C62.433 21.3711 62.0157 21.2657 61.5175 21.2657H60.4499L60.4466 23.7448Z" fill="black"/>
<path d="M70.906 21.8869V25.7635C70.906 26.4263 70.6699 26.9726 70.2007 27.3969C69.7316 27.8211 69.1008 28.0319 68.3114 28.0319C67.425 28.0319 66.6582 27.8017 66.0079 27.3386L66.7553 26.6537C67.3085 26.8894 67.8261 27.0059 68.3114 27.0003C68.6996 27.0003 69.007 26.9171 69.2334 26.748C69.4631 26.5788 69.5764 26.3376 69.5764 26.0242V25.7386C69.2593 26.088 68.7837 26.2627 68.1561 26.2627C67.4217 26.2627 66.862 26.0658 66.4706 25.6748C66.0791 25.2838 65.885 24.7569 65.885 24.0914V21.8869H67.2017V24.0304C67.2017 24.7902 67.59 25.1701 68.3632 25.1701C68.7514 25.1701 69.0523 25.0675 69.2658 24.8623C69.4793 24.6571 69.5861 24.3493 69.5861 23.9334V21.8869H70.906Z" fill="black"/>
<path d="M76.1761 20.1066H77.4928C77.4928 20.5503 77.3472 20.883 77.0528 21.1021C76.7584 21.3211 76.2602 21.4321 75.5549 21.4321H75.2217C74.73 21.4321 74.3418 21.5291 74.0603 21.7205C73.7788 21.9118 73.6365 22.1863 73.6365 22.5441V22.7409C73.7821 22.5274 73.9988 22.3555 74.2835 22.2252C74.5715 22.0948 74.882 22.0283 75.2217 22.0283C75.9496 22.0283 76.532 22.2252 76.9752 22.6161C77.4184 23.0071 77.6384 23.5063 77.6384 24.1108C77.6384 24.7625 77.3925 25.3088 76.9008 25.7469C76.409 26.185 75.7652 26.4041 74.9726 26.4041C74.2123 26.4041 73.5783 26.185 73.0736 25.7469C72.5689 25.3088 72.3165 24.7292 72.3165 24.0138V22.9461C72.3165 22.1641 72.5786 21.5569 73.0994 21.127C73.6203 20.6972 74.3644 20.4809 75.3253 20.4809C75.6585 20.4809 75.8817 20.4532 75.9982 20.4005C76.1179 20.3478 76.1761 20.248 76.1761 20.1066ZM74.9726 23.0682C74.6135 23.0682 74.2997 23.1763 74.0344 23.3898C73.7691 23.6033 73.6365 23.8696 73.6365 24.1912C73.6365 24.5184 73.7691 24.7846 74.0312 24.9954C74.2932 25.2061 74.607 25.3115 74.9759 25.3115C75.3414 25.3115 75.6585 25.2061 75.9205 24.9954C76.1826 24.7846 76.3152 24.5157 76.3152 24.1912C76.3152 23.8723 76.1793 23.6033 75.9108 23.3898C75.6358 23.1763 75.3253 23.0682 74.9726 23.0682Z" fill="black"/>
<path d="M80.9902 23.5479L79.5699 26.332H78.1691L80.5663 21.8841H81.4172L83.8145 26.332H82.4233L80.9902 23.5479Z" fill="black"/>
<path d="M87.0205 21.823C88.1204 21.823 88.8807 22.2223 89.3045 23.0237C89.408 23.2206 89.4663 23.4563 89.4824 23.7308C89.4986 24.0054 89.4663 24.2355 89.3886 24.4185H85.7684C85.7684 24.7097 85.8914 24.9371 86.1373 25.1035C86.3831 25.2699 86.6872 25.353 87.0561 25.353C87.6319 25.353 88.1528 25.2504 88.6219 25.0425L89.3175 25.6914C88.5895 26.1545 87.8357 26.3846 87.0561 26.3846C86.2764 26.3846 85.639 26.1711 85.1473 25.7413C84.6555 25.3115 84.4097 24.7679 84.4097 24.108C84.4097 23.4563 84.6491 22.9128 85.1246 22.4747C85.597 22.0393 86.2311 21.823 87.0205 21.823ZM87.0205 22.8546C86.6808 22.8546 86.3993 22.9405 86.1761 23.1125C85.9496 23.2844 85.8331 23.484 85.817 23.7086H88.1948C88.1948 23.5783 88.1528 23.4591 88.0687 23.3537C87.8616 23.0209 87.5122 22.8546 87.0205 22.8546Z" fill="black"/>
<path d="M91.045 21.8841H93.7626C94.9531 21.8841 95.5484 22.2862 95.5484 23.0931C95.5484 23.5618 95.3123 23.8668 94.8432 24.0082C95.474 24.133 95.7878 24.4658 95.7878 25.0037C95.7878 25.4724 95.6293 25.8107 95.309 26.0187C94.992 26.2266 94.4776 26.3292 93.7723 26.3292H91.045V21.8841ZM92.365 22.8463V23.6366H93.6914C94.0505 23.6311 94.2317 23.498 94.2317 23.2373C94.2317 22.9767 94.0441 22.8463 93.672 22.8463H92.365ZM92.365 25.3698H93.8079C94.2511 25.3698 94.4711 25.2145 94.4711 24.9067C94.4711 24.61 94.2576 24.4602 93.8273 24.4519H92.365V25.3698Z" fill="black"/>
<path d="M99.6052 21.8314C100.437 21.8314 101.116 22.1032 101.65 22.6495L100.86 23.3788C100.479 23.0765 100.061 22.924 99.6052 22.924C99.2396 22.924 98.9226 23.0349 98.6605 23.254C98.3985 23.473 98.2658 23.7587 98.2658 24.1081C98.2658 24.4575 98.3985 24.7431 98.6605 24.9622C98.9226 25.1812 99.2364 25.2921 99.6052 25.2921C100.061 25.2921 100.479 25.1396 100.86 24.8374L101.65 25.5667C101.116 26.113 100.437 26.3847 99.6052 26.3847C98.8643 26.3847 98.2367 26.1629 97.7223 25.7192C97.2079 25.2755 96.9491 24.7375 96.9491 24.1081C96.9491 23.4786 97.2079 22.9434 97.7223 22.4997C98.2367 22.0533 98.8676 21.8314 99.6052 21.8314Z" fill="black"/>
<path d="M106.674 26.332L105.781 25.1479C105.616 24.9289 105.468 24.7791 105.341 24.7043C105.212 24.6266 105.031 24.5878 104.798 24.5878H104.435V26.332H103.119V21.8841H104.435V23.5035H104.756C104.992 23.5035 105.17 23.4647 105.296 23.3871C105.422 23.3094 105.565 23.1625 105.733 22.9434L106.542 21.8841H108.004L106.842 23.3871C106.58 23.7365 106.335 23.9528 106.105 24.036C106.341 24.0997 106.603 24.3243 106.894 24.7043L108.14 26.332H106.674Z" fill="black"/>
<path d="M114.102 26.3293H112.785V23.706L110.129 26.3293H109.278V21.8813H110.595V24.5046L113.251 21.8813H114.102V26.3293Z" fill="black"/>
<path d="M120.692 26.3292H119.376V23.7059L116.72 26.3292H115.869V21.8813H117.185V24.5046L119.841 21.8813H120.692V26.3292ZM119.45 21.1132C119.136 21.3711 118.751 21.5014 118.292 21.5014C117.836 21.5014 117.451 21.3738 117.134 21.1159C116.82 20.858 116.661 20.5364 116.661 20.1509H117.574C117.574 20.3118 117.642 20.4449 117.781 20.5558C117.92 20.6667 118.088 20.7194 118.289 20.7194C118.489 20.7194 118.661 20.6639 118.803 20.5558C118.945 20.4449 119.016 20.3118 119.016 20.1509H119.919C119.922 20.5336 119.767 20.8553 119.45 21.1132Z" fill="black"/>
<path d="M65.17 32.4077H51.6825V50.7485H55.3965V40.0613H65.17C67.632 40.0613 69.6345 38.3448 69.6345 36.2345C69.6345 34.1242 67.632 32.4077 65.17 32.4077ZM65.17 36.9998H55.3965V35.4691H65.17C65.6617 35.4691 66.0629 35.813 66.0629 36.2345C66.0629 36.656 65.665 36.9998 65.17 36.9998Z" fill="black"/>
<path d="M80.2492 32.3162V36.8805L75.0341 41.6085V32.4215H71.3201V50.7623H75.0341V46.062L80.2492 41.3368V50.6541H83.9632V32.3162H80.2492Z" fill="black"/>
<path d="M120.019 51.0673C113.853 51.0673 108.839 46.7692 108.839 41.4838C108.839 36.1984 113.853 31.9003 120.019 31.9003C126.186 31.9003 131.2 36.1984 131.2 41.4838C131.2 46.7664 126.186 51.0673 120.019 51.0673ZM120.019 34.9617C115.823 34.9617 112.41 37.8872 112.41 41.4838C112.41 45.0804 115.823 48.0059 120.019 48.0059C124.215 48.0059 127.629 45.0804 127.629 41.4838C127.629 37.8872 124.215 34.9617 120.019 34.9617Z" fill="black"/>
<path d="M104.002 40.9486C103.546 40.5271 102.993 40.0779 102.326 39.6398C104.096 39.307 105.338 37.8789 105.338 36.2012C105.338 34.091 103.336 32.3745 100.874 32.3745L87.4216 32.4216V50.7623H102.899C105.526 50.7623 107.156 49.4452 107.156 47.3266C107.156 45.6517 106.328 43.1005 104.002 40.9486ZM101.766 36.2012C101.766 36.6227 101.365 36.9666 100.874 36.9666H91.1356V35.4359H100.874C101.365 35.4359 101.766 35.777 101.766 36.2012ZM103.452 47.5456C103.381 47.5678 103.213 47.6039 102.899 47.6039H91.1356V39.9753L92.7856 39.9781C101.501 39.9781 103.475 45.5213 103.475 47.3238C103.475 47.4375 103.462 47.5068 103.452 47.5456Z" fill="black"/>
<path d="M147.334 41.4283C146.697 40.8405 145.804 40.2415 144.668 39.7063C146.742 39.6092 148.266 38.0564 148.266 36.1984C148.266 34.0882 146.263 32.3717 143.801 32.3717H133.915L134.397 35.4331H143.801C144.293 35.4331 144.694 35.7769 144.694 36.1984C144.694 36.6199 144.293 36.9638 143.801 36.9638H136.69V40.0086C144.503 40.4384 146.318 45.5962 146.318 47.3238C146.318 47.4347 146.305 47.5068 146.296 47.5456C146.225 47.5678 146.056 47.6039 145.743 47.6039H132.582L132.177 50.7596H145.743C148.369 50.7596 150 49.4424 150 47.3238C150.003 45.6517 149.664 43.5802 147.334 41.4283Z" fill="black"/>
</svg>
