<svg width="256" height="164" viewBox="0 0 256 164" fill="none" xmlns="http://www.w3.org/2000/svg">
<path d="M0 163.105V0H229.393L256 103.468L0 163.105Z" fill="#D4A465"/>
<path d="M30.7379 59.4517V86.6001H36.0176V63.9771H51.6461V86.5591H57.1362L57.1314 59.4517H30.7379Z" fill="black"/>
<path d="M73.109 41.2639H76.6383C78.1113 41.2639 79.2782 41.5959 80.1342 42.2559C80.995 42.9159 81.4206 43.7644 81.4206 44.8014C81.4206 45.8426 80.9902 46.6952 80.1342 47.3593C79.2734 48.0192 78.1113 48.3513 76.6383 48.3513H75.2276V50.4664H73.109V41.2639ZM75.2276 46.6419H76.8057C77.5518 46.6419 78.1735 46.4903 78.6708 46.1828C79.1682 45.8754 79.4169 45.4163 79.4169 44.8014C79.4169 44.2153 79.1682 43.7644 78.666 43.4487C78.1639 43.1331 77.547 42.9773 76.8105 42.9773H75.2323L75.2276 46.6419Z" fill="black"/>
<path d="M90.6887 43.8956V49.6261C90.6887 50.6058 90.3396 51.4133 89.6462 52.0405C88.9528 52.6677 88.0202 52.9792 86.8533 52.9792C85.543 52.9792 84.4096 52.639 83.4483 51.9544L84.553 50.9419C85.3708 51.2904 86.136 51.4625 86.8533 51.4543C87.4272 51.4543 87.8815 51.3314 88.2163 51.0813C88.5558 50.8313 88.7232 50.4746 88.7232 50.0114V49.5892C88.2545 50.1057 87.5515 50.364 86.6238 50.364C85.5382 50.364 84.7109 50.0729 84.1322 49.495C83.5535 48.917 83.2666 48.1381 83.2666 47.1544V43.8956H85.213V47.0642C85.213 48.1873 85.7869 48.7489 86.9298 48.7489C87.5037 48.7489 87.9485 48.5972 88.2641 48.2939C88.5797 47.9906 88.7375 47.5356 88.7375 46.9207V43.8956H90.6887Z" fill="black"/>
<path d="M98.479 41.2639H100.425C100.425 41.9198 100.21 42.4117 99.775 42.7355C99.3398 43.0593 98.6033 43.2233 97.5608 43.2233H97.0682C96.3413 43.2233 95.7674 43.3668 95.3513 43.6496C94.9353 43.9324 94.7249 44.3383 94.7249 44.867V45.1581C94.9401 44.8424 95.2605 44.5883 95.6813 44.3956C96.1069 44.203 96.566 44.1046 97.0682 44.1046C98.1442 44.1046 99.005 44.3956 99.6602 44.9736C100.315 45.5516 100.641 46.2894 100.641 47.183C100.641 48.1463 100.277 48.9539 99.5502 49.6015C98.8233 50.2492 97.8716 50.573 96.6999 50.573C95.5761 50.573 94.6388 50.2492 93.8927 49.6015C93.1467 48.9539 92.7737 48.0971 92.7737 47.0396V45.4614C92.7737 44.3055 93.161 43.4078 93.931 42.7724C94.7009 42.137 95.8009 41.8173 97.2212 41.8173C97.7138 41.8173 98.0438 41.7763 98.2159 41.6984C98.3929 41.6205 98.479 41.473 98.479 41.2639ZM96.6999 45.6418C96.1691 45.6418 95.7052 45.8016 95.3131 46.1173C94.9209 46.4329 94.7249 46.8264 94.7249 47.3019C94.7249 47.7856 94.9209 48.1791 95.3083 48.4907C95.6957 48.8022 96.1595 48.958 96.7047 48.958C97.2451 48.958 97.7138 48.8022 98.1012 48.4907C98.4885 48.1791 98.6846 47.7815 98.6846 47.3019C98.6846 46.8305 98.4837 46.4329 98.0868 46.1173C97.6803 45.8016 97.2212 45.6418 96.6999 45.6418Z" fill="black"/>
<path d="M105.595 46.3509L103.496 50.4665H101.425L104.969 43.8915H106.226L109.77 50.4665H107.714L105.595 46.3509Z" fill="black"/>
<path d="M114.509 43.8011C116.135 43.8011 117.259 44.3914 117.886 45.5761C118.039 45.8671 118.125 46.2155 118.149 46.6213C118.173 47.0271 118.125 47.3674 118.01 47.6379H112.659C112.659 48.0683 112.84 48.4044 113.204 48.6504C113.567 48.8963 114.017 49.0193 114.562 49.0193C115.413 49.0193 116.183 48.8676 116.877 48.5602L117.905 49.5194C116.829 50.204 115.714 50.5442 114.562 50.5442C113.409 50.5442 112.467 50.2286 111.74 49.5932C111.013 48.9578 110.65 48.1544 110.65 47.1788C110.65 46.2155 111.004 45.4121 111.707 44.7644C112.405 44.1209 113.342 43.8011 114.509 43.8011ZM114.509 45.326C114.007 45.326 113.591 45.4531 113.261 45.7072C112.926 45.9614 112.754 46.2565 112.73 46.5885H116.245C116.245 46.3959 116.183 46.2196 116.059 46.0639C115.753 45.572 115.236 45.326 114.509 45.326Z" fill="black"/>
<path d="M120.458 43.8915H124.476C126.236 43.8915 127.115 44.4859 127.115 45.6787C127.115 46.3714 126.766 46.8223 126.073 47.0314C127.005 47.2159 127.469 47.7078 127.469 48.503C127.469 49.1957 127.235 49.6958 126.762 50.0033C126.293 50.3107 125.533 50.4624 124.49 50.4624H120.458V43.8915ZM122.41 45.3139V46.4821H124.37C124.901 46.4739 125.169 46.2772 125.169 45.8918C125.169 45.5065 124.892 45.3139 124.342 45.3139H122.41ZM122.41 49.0441H124.543C125.198 49.0441 125.523 48.8145 125.523 48.3595C125.523 47.9209 125.207 47.6996 124.571 47.6873H122.41V49.0441Z" fill="black"/>
<path d="M133.112 43.8136C134.341 43.8136 135.346 44.2153 136.135 45.0228L134.968 46.1009C134.404 45.6541 133.787 45.4286 133.112 45.4286C132.572 45.4286 132.103 45.5926 131.716 45.9164C131.329 46.2403 131.132 46.6625 131.132 47.179C131.132 47.6955 131.329 48.1177 131.716 48.4415C132.103 48.7653 132.567 48.9293 133.112 48.9293C133.787 48.9293 134.404 48.7038 134.968 48.257L136.135 49.3351C135.346 50.1426 134.341 50.5443 133.112 50.5443C132.017 50.5443 131.089 50.2164 130.329 49.5606C129.569 48.9047 129.186 48.1095 129.186 47.179C129.186 46.2485 129.569 45.4573 130.329 44.8015C131.089 44.1415 132.022 43.8136 133.112 43.8136Z" fill="black"/>
<path d="M143.562 50.4665L142.242 48.7161C141.998 48.3923 141.778 48.171 141.591 48.0603C141.4 47.9455 141.132 47.8881 140.788 47.8881H140.252V50.4665H138.306V43.8915H140.252V46.2854H140.726C141.075 46.2854 141.338 46.228 141.525 46.1132C141.711 45.9984 141.921 45.7812 142.17 45.4573L143.366 43.8915H145.527L143.81 46.1132C143.423 46.6297 143.06 46.9494 142.72 47.0724C143.069 47.1667 143.457 47.4987 143.887 48.0603L145.728 50.4665H143.562Z" fill="black"/>
<path d="M154.542 50.4624H152.595V46.5846L148.669 50.4624H147.411V43.8874H149.358V47.7651L153.284 43.8874H154.542V50.4624Z" fill="black"/>
<path d="M164.283 50.4623H162.337V46.5845L158.411 50.4623H157.153V43.8873H159.099V47.7651L163.026 43.8873H164.283V50.4623ZM162.447 42.7519C161.983 43.1331 161.414 43.3257 160.735 43.3257C160.061 43.3257 159.492 43.1372 159.023 42.756C158.559 42.3747 158.325 41.8992 158.325 41.3295H159.673C159.673 41.5672 159.774 41.764 159.979 41.9279C160.185 42.0919 160.434 42.1698 160.73 42.1698C161.027 42.1698 161.28 42.0878 161.491 41.9279C161.701 41.764 161.806 41.5672 161.806 41.3295H163.14C163.145 41.8951 162.916 42.3706 162.447 42.7519Z" fill="black"/>
<path d="M82.2097 59.4476H62.2723V86.5591H67.7624V70.7612H82.2097C85.849 70.7612 88.8093 68.2238 88.8093 65.1044C88.8093 61.985 85.849 59.4476 82.2097 59.4476ZM82.2097 66.2358H67.7624V63.9731H82.2097C82.9366 63.9731 83.5296 64.4813 83.5296 65.1044C83.5296 65.7275 82.9414 66.2358 82.2097 66.2358Z" fill="black"/>
<path d="M104.5 59.3123V66.0595L96.791 73.0484V59.4681H91.3009V86.5796H96.791V79.6316L104.5 72.6467V86.4197H109.99V59.3123H104.5Z" fill="black"/>
<path d="M163.289 87.0306C154.174 87.0306 146.761 80.6769 146.761 72.864C146.761 65.0511 154.174 58.6975 163.289 58.6975C172.404 58.6975 179.816 65.0511 179.816 72.864C179.816 80.6728 172.404 87.0306 163.289 87.0306ZM163.289 63.2229C157.086 63.2229 152.041 67.5475 152.041 72.864C152.041 78.1806 157.086 82.5051 163.289 82.5051C169.491 82.5051 174.537 78.1806 174.537 72.864C174.537 67.5475 169.491 63.2229 163.289 63.2229Z" fill="black"/>
<path d="M139.612 72.0729C138.937 71.4499 138.119 70.7858 137.134 70.1382C139.75 69.6463 141.587 67.5352 141.587 65.0553C141.587 61.9358 138.626 59.3985 134.987 59.3985L115.102 59.4682V86.5797H137.981C141.864 86.5797 144.274 84.6326 144.274 81.5009C144.274 79.025 143.05 75.2539 139.612 72.0729ZM136.307 65.0553C136.307 65.6783 135.714 66.1866 134.987 66.1866H120.592V63.9239H134.987C135.714 63.9239 136.307 64.4281 136.307 65.0553ZM138.799 81.8247C138.693 81.8575 138.445 81.9108 137.981 81.9108H120.592V70.6342L123.031 70.6383C135.915 70.6383 138.832 78.8324 138.832 81.4968C138.832 81.6649 138.813 81.7673 138.799 81.8247Z" fill="black"/>
<path d="M203.666 72.7821C202.724 71.9131 201.404 71.0277 199.725 70.2366C202.791 70.0931 205.043 67.7976 205.043 65.0512C205.043 61.9318 202.083 59.3944 198.444 59.3944H183.829L184.542 63.9198H198.444C199.171 63.9198 199.764 64.4281 199.764 65.0512C199.764 65.6742 199.171 66.1825 198.444 66.1825H187.932V70.6834C199.481 71.3187 202.164 78.9431 202.164 81.4968C202.164 81.6608 202.145 81.7674 202.131 81.8247C202.026 81.8575 201.777 81.9108 201.313 81.9108H181.859L181.261 86.5756H201.313C205.196 86.5756 207.607 84.6285 207.607 81.4968C207.611 79.0251 207.109 75.963 203.666 72.7821Z" fill="black"/>
</svg>
