<svg width="24" height="24" viewBox="0 0 24 24" fill="none" xmlns="http://www.w3.org/2000/svg">
<path fill-rule="evenodd" clip-rule="evenodd" d="M7.008 22.914C2.874 21.018 0 16.842 0 12C0 5.377 5.377 0 12 0C18.623 0 24 5.377 24 12C24 16.439 21.585 20.318 17.998 22.394C18 16.996 18.002 9.585 17.996 8.709C17.993 8.297 17.696 8 17.323 8C16.026 8 14.108 13.17 13.44 19C14.519 18.997 15.496 19 15.496 19V23.482C14.389 23.819 13.216 24 12 24C11.148 24 10.317 23.911 9.516 23.742V17.646C9.516 17.061 9.876 16.881 10.667 16.255C11.261 15.785 11.683 15.043 11.602 14.292C11.371 12.171 10.809 8 10.809 8H10.351V13H9.516L9.35 8H8.881L8.68 13H7.844L7.7 8H7.194L7.008 13H6.172V8H5.672C5.672 8 5.163 12.198 4.954 14.312C4.88 15.053 5.28 15.781 5.861 16.247C6.648 16.877 7.008 17.066 7.008 17.642V22.914Z" fill="#D4A465"/>
</svg>
