<svg width="16" height="18" viewBox="0 0 16 18" fill="none" xmlns="http://www.w3.org/2000/svg">
<path fill-rule="evenodd" clip-rule="evenodd" d="M5.49423 5.625H10.5067V4.149C10.5067 3.282 10.2715 2.5605 9.80232 1.986C9.33181 1.4115 8.73164 1.125 8.00049 1.125C7.26933 1.125 6.66916 1.4115 6.19866 1.986C5.72949 2.5605 5.49423 3.282 5.49423 4.149V5.625ZM15.018 16.734L13.7027 7.875C13.6599 7.5705 13.5356 7.3065 13.3258 7.0845C13.1172 6.861 12.8766 6.75 12.6053 6.75H11.5092V8.0505C11.8434 8.262 12.0105 8.5785 12.0105 9C12.0105 9.3285 11.9116 9.597 11.7124 9.8085C11.5146 10.02 11.2793 10.125 11.008 10.125C10.7366 10.125 10.5014 10.02 10.3036 9.8085C10.1044 9.597 10.0055 9.3285 10.0055 9C10.0055 8.5785 10.1726 8.262 10.5067 8.0505V6.75H5.49423V8.0505C5.82839 8.262 5.99548 8.5785 5.99548 9C5.99548 9.3285 5.89656 9.597 5.6974 9.8085C5.49957 10.02 5.26432 10.125 4.99298 10.125C4.72163 10.125 4.48638 10.02 4.28855 9.8085C4.08939 9.597 3.99047 9.3285 3.99047 9C3.99047 8.5785 4.15756 8.262 4.49172 8.0505V6.75H3.30075C3.02941 6.75 2.79015 6.861 2.58029 7.0845C2.37177 7.3065 2.24612 7.5585 2.20468 7.8405L0.982969 16.6995C0.982969 16.8165 1.0351 16.875 1.13936 16.875H14.8295C14.9552 16.875 15.018 16.8285 15.018 16.734ZM15.7385 17.5785C15.5085 17.859 15.1851 18 14.7667 18H1.07653C0.722318 18 0.440281 17.883 0.230424 17.649C0.0432903 17.391 -0.0302265 17.028 0.0112102 16.5585L1.20218 7.6995C1.26501 7.137 1.50026 6.651 1.90661 6.24C2.31429 5.8305 2.77945 5.625 3.30075 5.625H4.49172V4.149C4.49172 2.976 4.82589 1.992 5.49422 1.1955C6.16256 0.399 7.00332 0 8.01652 0C9.02971 0 9.86513 0.399 10.5228 1.1955C11.1804 1.992 11.5092 2.976 11.5092 4.149V5.625H12.6053C13.1279 5.625 13.5931 5.8305 13.9994 6.24C14.4071 6.651 14.6424 7.137 14.7052 7.6995L15.9897 16.5585C16.0312 16.98 15.947 17.3205 15.7385 17.5785Z" />
</svg>
