<svg width="26" height="25" viewBox="0 0 26 25" fill="none" xmlns="http://www.w3.org/2000/svg">
<path fill-rule="evenodd" clip-rule="evenodd" d="M18.6079 9.75564C18.6079 7.47856 17.7965 5.54492 16.176 3.95055C14.5533 2.35618 12.6056 1.55899 10.3288 1.55899C8.05206 1.55899 6.10232 2.35618 4.48174 3.95055C2.85906 5.54492 2.04981 7.47856 2.04981 9.75564C2.04981 12.0327 2.85906 13.9664 4.48174 15.5607C6.10232 17.1551 8.05206 17.9523 10.3288 17.9523C12.6056 17.9523 14.5533 17.1551 16.176 15.5607C17.7965 13.9664 18.6079 12.0327 18.6079 9.75564ZM25.5117 24.7315C25.1343 25.0895 24.7674 25.0895 24.4068 24.7315L16.7399 17.1218C14.9055 18.7162 12.7608 19.5113 10.3037 19.5113C7.58457 19.5113 5.26795 18.5601 3.35176 16.6576C1.43557 14.7552 0.477478 12.4552 0.477478 9.75564C0.477478 7.05603 1.43557 4.75606 3.35176 2.85363C5.26795 0.951211 7.58457 0 10.3037 0C13.0229 0 15.3395 0.951211 17.2557 2.85363C19.174 4.75606 20.1321 7.05603 20.1321 9.75564C20.1321 12.0972 19.3773 14.1787 17.8699 15.9999L25.4865 23.6596C25.8806 24.0176 25.889 24.3735 25.5117 24.7315Z" />
</svg>
