<svg width="28" height="16" viewBox="0 0 28 16" fill="none" xmlns="http://www.w3.org/2000/svg">
<path fill-rule="evenodd" clip-rule="evenodd" d="M15.0254 14.9829C15.0254 14.9829 15.5074 14.9303 15.7542 14.67C15.9802 14.4316 15.9724 13.9816 15.9724 13.9816C15.9724 13.9816 15.9423 11.8802 16.9363 11.57C17.9159 11.2648 19.1737 13.6021 20.5085 14.5008C21.5168 15.1803 22.2822 15.0316 22.2822 15.0316L25.8492 14.9829C25.8492 14.9829 27.7144 14.87 26.8301 13.4303C26.757 13.3123 26.3142 12.3648 24.1787 10.4186C21.9413 8.38141 22.2417 8.71091 24.935 5.18646C26.5755 3.04026 27.2311 1.72997 27.0261 1.1697C26.8315 0.633785 25.6246 0.776096 25.6246 0.776096L21.6096 0.800456C21.6096 0.800456 21.3118 0.760711 21.0911 0.890202C20.8755 1.01713 20.7358 1.31329 20.7358 1.31329C20.7358 1.31329 20.101 2.97359 19.2533 4.38644C17.4653 7.366 16.7508 7.5237 16.4582 7.33908C15.7778 6.90702 15.9475 5.6057 15.9475 4.68132C15.9475 1.79279 16.3942 0.588912 15.079 0.277366C14.6427 0.173517 14.3214 0.105567 13.2047 0.0940281C11.7719 0.0799252 10.5598 0.0991564 9.87278 0.428652C9.41564 0.647888 9.06299 1.13764 9.2785 1.16585C9.54364 1.20047 10.1445 1.32483 10.4632 1.75048C10.8746 2.30049 10.8602 3.53386 10.8602 3.53386C10.8602 3.53386 11.0966 6.93394 10.3077 7.35575C9.76699 7.6455 9.02511 7.05446 7.43034 4.35054C6.61401 2.96589 5.99753 1.43509 5.99753 1.43509C5.99753 1.43509 5.87867 1.14918 5.66577 0.995333C5.40847 0.809431 5.04928 0.751737 5.04928 0.751737L1.2341 0.776096C1.2341 0.776096 0.660718 0.791481 0.450432 1.03636C0.263657 1.25303 0.436065 1.70304 0.436065 1.70304C0.436065 1.70304 3.42316 8.56347 6.80601 12.0212C9.90805 15.1906 13.4294 14.9829 13.4294 14.9829H15.0254Z"/>
</svg>
