<svg width="61" height="61" viewBox="0 0 61 61" fill="none" xmlns="http://www.w3.org/2000/svg">
<g clip-path="url(#clip01)">
<path d="M11.2197 5.61102L1.23578 9.22839V10.7718L11.2197 11.64" stroke="#C6995F" stroke-width="2" stroke-miterlimit="10"/>
<path d="M28.8724 51.3828V59.2928H24.1458" stroke="#C6995F" stroke-width="2" stroke-miterlimit="10"/>
<path d="M36.7824 51.3828V59.2928H32.0557" stroke="#C6995F" stroke-width="2" stroke-miterlimit="10"/>
<path d="M48.2614 28.9551H59.2582C59.2582 28.9551 61.091 51.3828 41.702 51.3828H18.1168L9.33862 36.6239C9.33862 36.6239 18.8402 23.5532 12.4254 14.0033C10.3997 10.9165 9.72448 4.88759 14.1135 2.57248C21.1071 -1.09312 26.2197 4.54997 25.9303 8.98727C25.5444 15.5468 23.0364 24.6143 30.8016 28.9551" stroke="white" stroke-width="2" stroke-miterlimit="10"/>
<path d="M15.8982 9.46957C16.7506 9.46957 17.4416 8.77856 17.4416 7.92616C17.4416 7.07376 16.7506 6.38275 15.8982 6.38275C15.0458 6.38275 14.3548 7.07376 14.3548 7.92616C14.3548 8.77856 15.0458 9.46957 15.8982 9.46957Z" fill="#C6995F"/>
<path d="M30.7053 42.5564C30.7053 42.5564 30.7053 37.9262 30.7053 31.1256C30.7053 24.3249 36.9271 21.4792 42.1844 21.4792C47.4416 21.4792 48.2133 21.4792 48.2133 21.4792C48.2133 21.4792 48.2133 28.6657 48.2133 33.3924C48.2133 38.1191 43.6795 42.5564 38.2294 42.5564C32.7792 42.5564 30.7053 42.5564 30.7053 42.5564Z" stroke="#C6995F" stroke-width="2" stroke-miterlimit="10"/>
</g>
<defs>
<clipPath id="clip01">
<rect width="60" height="59.8071" fill="white" transform="translate(0.271118 0.450317)"/>
</clipPath>
</defs>
</svg>
