<svg width="16" height="27" viewBox="0 0 16 27" fill="none" xmlns="http://www.w3.org/2000/svg">
<path fill-rule="evenodd" clip-rule="evenodd" d="M10.9464 7.29758C10.9464 5.7871 9.70889 4.55885 8.18755 4.55885C6.66742 4.55885 5.42875 5.7871 5.42875 7.29758C5.42875 8.80687 6.66742 10.0359 8.18755 10.0359C9.70889 10.0359 10.9464 8.80687 10.9464 7.29758ZM14.8506 7.29751C14.8506 10.9447 11.863 13.9114 8.18761 13.9114C4.51305 13.9114 1.52461 10.9447 1.52461 7.29751C1.52461 3.64916 4.51305 0.681641 8.18761 0.681641C11.863 0.681641 14.8506 3.64916 14.8506 7.29751ZM14.7696 17.72C13.5648 18.4713 12.2568 19.0041 10.9005 19.3109L14.6253 23.0095C15.3883 23.7655 15.3883 24.9934 14.6253 25.7502C13.863 26.507 12.6275 26.507 11.8661 25.7502L8.20389 22.1157L4.54488 25.7502C4.16335 26.1282 3.66341 26.3174 3.16348 26.3174C2.66434 26.3174 2.1652 26.1282 1.78367 25.7502C1.02141 24.9934 1.02141 23.7663 1.78288 23.0095L5.50807 19.3109C4.15178 19.0041 2.84374 18.4705 1.63896 17.72C0.727194 17.1493 0.453307 15.9535 1.02779 15.0474C1.60068 14.1402 2.80547 13.867 3.71883 14.4378C6.44654 16.1415 9.96043 16.1419 12.6897 14.4378C13.6031 13.867 14.8075 14.1402 15.3816 15.0474C15.9561 15.9527 15.6814 17.1493 14.7696 17.72Z"/>
</svg>
