<svg width="151" height="40" viewBox="0 0 151 40" fill="none" xmlns="http://www.w3.org/2000/svg">
<path d="M0 15.5276V38.7053H4.50746V19.3911H17.8502V38.6703H22.5373L22.5332 15.5276H0Z" fill="white"/>
<path d="M36.174 0H39.1871C40.4447 0 41.4409 0.283466 42.1717 0.846898C42.9066 1.41033 43.27 2.13474 43.27 3.02014C43.27 3.90903 42.9025 4.63694 42.1717 5.20387C41.4368 5.76731 40.4447 6.05077 39.1871 6.05077H37.9827V7.85655H36.174V0ZM37.9827 4.59145H39.33C39.967 4.59145 40.4977 4.46196 40.9224 4.19949C41.347 3.93703 41.5593 3.54507 41.5593 3.02014C41.5593 2.5197 41.347 2.13474 40.9183 1.86528C40.4896 1.59581 39.9629 1.46282 39.3341 1.46282H37.9868L37.9827 4.59145Z" fill="white"/>
<path d="M51.1825 2.24658V7.13899C51.1825 7.97539 50.8845 8.66481 50.2925 9.20025C49.7004 9.73568 48.9043 10.0016 47.9081 10.0016C46.7894 10.0016 45.8217 9.71118 45.0011 9.12676L45.9442 8.26236C46.6424 8.55982 47.2957 8.70681 47.9081 8.69981C48.398 8.69981 48.7859 8.59482 49.0717 8.38134C49.3616 8.16787 49.5045 7.86341 49.5045 7.46795V7.1075C49.1044 7.54844 48.5042 7.76892 47.7121 7.76892C46.7853 7.76892 46.079 7.52045 45.5849 7.02701C45.0909 6.53357 44.8459 5.86865 44.8459 5.02875V2.24658H46.5077V4.95176C46.5077 5.91064 46.9976 6.39008 47.9734 6.39008C48.4633 6.39008 48.8431 6.2606 49.1125 6.00163C49.382 5.74266 49.5167 5.35421 49.5167 4.82927V2.24658H51.1825Z" fill="white"/>
<path d="M57.8334 0H59.4951C59.4951 0.559933 59.3113 0.979883 58.9398 1.25635C58.5683 1.53282 57.9395 1.6728 57.0494 1.6728H56.6289C56.0083 1.6728 55.5184 1.79528 55.1632 2.03676C54.808 2.27823 54.6283 2.62469 54.6283 3.07613V3.3246C54.8121 3.05513 55.0856 2.83816 55.4449 2.67368C55.8083 2.5092 56.2002 2.42521 56.6289 2.42521C57.5476 2.42521 58.2825 2.67368 58.8418 3.16712C59.4012 3.66056 59.6788 4.29049 59.6788 5.05339C59.6788 5.8758 59.3685 6.56521 58.7479 7.11815C58.1273 7.67108 57.3148 7.94755 56.3145 7.94755C55.3551 7.94755 54.5548 7.67108 53.9179 7.11815C53.281 6.56521 52.9625 5.8338 52.9625 4.93091V3.58357C52.9625 2.59669 53.2932 1.83028 53.9506 1.28785C54.6079 0.745411 55.547 0.472443 56.7596 0.472443C57.1801 0.472443 57.4618 0.437448 57.6088 0.370956C57.7599 0.304464 57.8334 0.178479 57.8334 0ZM56.3145 3.73755C55.8613 3.73755 55.4653 3.87404 55.1305 4.1435C54.7957 4.41297 54.6283 4.74893 54.6283 5.15488C54.6283 5.56783 54.7957 5.90379 55.1264 6.16976C55.4571 6.43573 55.8532 6.56871 56.3186 6.56871C56.78 6.56871 57.1801 6.43573 57.5108 6.16976C57.8415 5.90379 58.0089 5.56433 58.0089 5.15488C58.0089 4.75243 57.8374 4.41297 57.4986 4.1435C57.1515 3.87404 56.7596 3.73755 56.3145 3.73755Z" fill="white"/>
<path d="M63.9088 4.34291L62.1164 7.85649H60.3486L63.374 2.24316H64.4478L67.4731 7.85649H65.7175L63.9088 4.34291Z" fill="white"/>
<path d="M71.5191 2.16626C72.9073 2.16626 73.8667 2.6702 74.4016 3.68158C74.5322 3.93005 74.6057 4.22751 74.6261 4.57397C74.6466 4.92043 74.6057 5.21089 74.5077 5.44187H69.939C69.939 5.80932 70.0942 6.09629 70.4045 6.30626C70.7148 6.51624 71.0986 6.62122 71.564 6.62122C72.2908 6.62122 72.9481 6.49174 73.5401 6.22927L74.4179 7.04817C73.4993 7.6326 72.548 7.92307 71.564 7.92307C70.58 7.92307 69.7757 7.6536 69.1551 7.11116C68.5345 6.56873 68.2242 5.88281 68.2242 5.04991C68.2242 4.22751 68.5264 3.54159 69.1265 2.98866C69.7226 2.43923 70.5229 2.16626 71.5191 2.16626ZM71.5191 3.4681C71.0904 3.4681 70.7352 3.57659 70.4535 3.79356C70.1677 4.01054 70.0207 4.26251 70.0003 4.54597H73.0012C73.0012 4.38149 72.9481 4.23101 72.8419 4.09803C72.5806 3.67808 72.1397 3.4681 71.5191 3.4681Z" fill="white"/>
<path d="M76.5982 2.24316H80.0278C81.5303 2.24316 82.2815 2.7506 82.2815 3.76898C82.2815 4.36041 81.9835 4.74536 81.3915 4.92384C82.1876 5.08132 82.5837 5.50127 82.5837 6.18019C82.5837 6.77162 82.3836 7.19857 81.9794 7.46104C81.5793 7.72351 80.9301 7.85299 80.04 7.85299H76.5982V2.24316ZM78.264 3.45752V4.4549H79.938C80.3912 4.4479 80.6198 4.27992 80.6198 3.95096C80.6198 3.622 80.383 3.45752 79.9135 3.45752H78.264ZM78.264 6.64214H80.0849C80.6443 6.64214 80.9219 6.44616 80.9219 6.05771C80.9219 5.68325 80.6525 5.49427 80.1095 5.48377H78.264V6.64214Z" fill="white"/>
<path d="M87.4012 2.17676C88.4505 2.17676 89.3079 2.51972 89.9816 3.20913L88.9853 4.12952C88.5036 3.74807 87.9769 3.55559 87.4012 3.55559C86.9398 3.55559 86.5397 3.69558 86.209 3.97204C85.8783 4.24851 85.7109 4.60897 85.7109 5.04991C85.7109 5.49086 85.8783 5.85132 86.209 6.12778C86.5397 6.40425 86.9358 6.54423 87.4012 6.54423C87.9769 6.54423 88.5036 6.35176 88.9853 5.9703L89.9816 6.89069C89.3079 7.58011 88.4505 7.92307 87.4012 7.92307C86.4662 7.92307 85.6742 7.6431 85.025 7.08317C84.3758 6.52323 84.0492 5.84432 84.0492 5.04991C84.0492 4.25551 84.3758 3.58009 85.025 3.02016C85.6742 2.45672 86.4703 2.17676 87.4012 2.17676Z" fill="white"/>
<path d="M96.3224 7.85649L95.1955 6.36217C94.9873 6.0857 94.7995 5.89673 94.6402 5.80224C94.4769 5.70425 94.2483 5.65525 93.9543 5.65525H93.497V7.85649H91.8353V2.24316H93.497V4.28692H93.9012C94.1993 4.28692 94.4239 4.23792 94.5831 4.13994C94.7423 4.04195 94.922 3.85647 95.1343 3.58L96.155 2.24316H98.0004L96.5347 4.13994C96.204 4.58088 95.8937 4.85385 95.6038 4.95884C95.9018 5.03933 96.2325 5.32279 96.6 5.80224L98.1719 7.85649H96.3224Z" fill="white"/>
<path d="M105.697 7.85307H104.035V4.54247L100.683 7.85307H99.609V2.23975H101.271V5.55035L104.623 2.23975H105.697V7.85307Z" fill="white"/>
<path d="M114.013 7.85297H112.352V4.54237L109 7.85297H107.926V2.23965H109.588V5.55025L112.94 2.23965H114.013V7.85297ZM112.446 1.27026C112.05 1.59572 111.564 1.7602 110.984 1.7602C110.408 1.7602 109.922 1.59922 109.522 1.27376C109.126 0.948301 108.926 0.54235 108.926 0.0559082H110.078C110.078 0.258884 110.163 0.426864 110.339 0.566847C110.514 0.70683 110.727 0.773322 110.98 0.773322C111.233 0.773322 111.449 0.703331 111.629 0.566847C111.809 0.426864 111.899 0.258884 111.899 0.0559082H113.038C113.042 0.53885 112.846 0.944802 112.446 1.27026Z" fill="white"/>
<path d="M43.9437 15.5239H26.9223V38.6701H31.6094V25.1828H43.9437C47.0507 25.1828 49.578 23.0165 49.578 20.3533C49.578 17.6902 47.0507 15.5239 43.9437 15.5239ZM43.9437 21.3192H31.6094V19.3875H43.9437C44.5643 19.3875 45.0705 19.8214 45.0705 20.3533C45.0705 20.8853 44.5683 21.3192 43.9437 21.3192Z" fill="white"/>
<path d="M62.9738 15.4087V21.169L56.3922 27.1358V15.5417H51.7051V38.6879H56.3922V32.7561L62.9738 26.7928V38.5514H67.6609V15.4087H62.9738Z" fill="white"/>
<path d="M113.164 39.0726C105.382 39.0726 99.0538 33.6483 99.0538 26.9781C99.0538 20.3079 105.382 14.8835 113.164 14.8835C120.946 14.8835 127.274 20.3079 127.274 26.9781C127.274 33.6448 120.946 39.0726 113.164 39.0726ZM113.164 18.7471C107.869 18.7471 103.561 22.4391 103.561 26.9781C103.561 31.517 107.869 35.2091 113.164 35.2091C118.46 35.2091 122.767 31.517 122.767 26.9781C122.767 22.4391 118.46 18.7471 113.164 18.7471Z" fill="white"/>
<path d="M92.95 26.3026C92.3743 25.7707 91.6762 25.2038 90.8351 24.6508C93.0684 24.2309 94.6362 22.4286 94.6362 20.3114C94.6362 17.6482 92.109 15.4819 89.0019 15.4819L72.0255 15.5414V38.6876H91.5578C94.873 38.6876 96.9308 37.0253 96.9308 34.3517C96.9308 32.2379 95.8856 29.0183 92.95 26.3026ZM90.1288 20.3114C90.1288 20.8433 89.6225 21.2772 89.0019 21.2772H76.7126V19.3455H89.0019C89.6225 19.3455 90.1288 19.7759 90.1288 20.3114ZM92.2559 34.6281C92.1661 34.6561 91.9538 34.7016 91.5578 34.7016H76.7126V25.0743L78.7948 25.0778C89.794 25.0778 92.2845 32.0734 92.2845 34.3482C92.2845 34.4916 92.2682 34.5791 92.2559 34.6281Z" fill="white"/>
<path d="M147.636 26.9081C146.831 26.1662 145.704 25.4103 144.271 24.7349C146.889 24.6124 148.812 22.6527 148.812 20.3079C148.812 17.6448 146.284 15.4785 143.177 15.4785H130.7L131.308 19.3421H143.177C143.798 19.3421 144.304 19.776 144.304 20.3079C144.304 20.8399 143.798 21.2738 143.177 21.2738H134.203V25.1164C144.063 25.6588 146.354 32.168 146.354 34.3482C146.354 34.4882 146.337 34.5792 146.325 34.6282C146.235 34.6562 146.023 34.7017 145.627 34.7017H129.018L128.508 38.6842H145.627C148.942 38.6842 151 37.0219 151 34.3482C151.004 32.238 150.575 29.6238 147.636 26.9081Z" fill="white"/>
</svg>
