<svg xmlns="http://www.w3.org/2000/svg" xmlns:xlink="http://www.w3.org/1999/xlink"><symbol id="fb" viewBox="0 0 12 24">
<path d="M11.5481 0.0049936L8.66986 0C5.43624 0 3.34653 2.31828 3.34653 5.90643V8.62969H0.452578C0.202506 8.62969 0 8.84891 0 9.11932V13.065C0 13.3354 0.202736 13.5544 0.452578 13.5544H3.34653V23.5106C3.34653 23.781 3.54904 24 3.79911 24H7.5749C7.82497 24 8.02748 23.7808 8.02748 23.5106V13.5544H11.4112C11.6613 13.5544 11.8638 13.3354 11.8638 13.065L11.8652 9.11932C11.8652 8.98948 11.8174 8.86514 11.7326 8.77326C11.6479 8.68138 11.5324 8.62969 11.4123 8.62969H8.02748V6.32115C8.02748 5.21157 8.27201 4.64829 9.60873 4.64829L11.5477 4.64755C11.7975 4.64755 12 4.42833 12 4.15817V0.494367C12 0.224462 11.7977 0.00549296 11.5481 0.0049936Z" fill="white"/>
</symbol><symbol id="insta" viewBox="0 0 24 24">
<path d="M17.5034 0H6.49658C2.91431 0 0 2.91431 0 6.49658V17.5036C0 21.0857 2.91431 24 6.49658 24H17.5036C21.0857 24 24 21.0857 24 17.5036V6.49658C24 2.91431 21.0857 0 17.5034 0V0ZM12 18.5623C8.38147 18.5623 5.43768 15.6185 5.43768 12C5.43768 8.38147 8.38147 5.43768 12 5.43768C15.6185 5.43768 18.5623 8.38147 18.5623 12C18.5623 15.6185 15.6185 18.5623 12 18.5623ZM18.7192 6.98529C17.6499 6.98529 16.7802 6.11554 16.7802 5.0462C16.7802 3.97687 17.6499 3.10693 18.7192 3.10693C19.7886 3.10693 20.6585 3.97687 20.6585 5.0462C20.6585 6.11554 19.7886 6.98529 18.7192 6.98529Z" fill="white"/>
<path d="M12.0001 6.84448C9.15753 6.84448 6.84473 9.1571 6.84473 11.9998C6.84473 14.8423 9.15753 17.1552 12.0001 17.1552C14.8428 17.1552 17.1554 14.8423 17.1554 11.9998C17.1554 9.1571 14.8428 6.84448 12.0001 6.84448Z" fill="white"/>
<path d="M18.7186 4.51392C18.4253 4.51392 18.1865 4.75269 18.1865 5.04602C18.1865 5.33936 18.4253 5.57812 18.7186 5.57812C19.0121 5.57812 19.2509 5.33954 19.2509 5.04602C19.2509 4.7525 19.0121 4.51392 18.7186 4.51392Z" fill="white"/>
</symbol><symbol id="logo" viewBox="0 0 68 15">
<path d="M0.52 4.36C0.52 3.22667 0.793333 2.36 1.34 1.76C1.88667 1.14667 2.69333 0.84 3.76 0.84C4.82667 0.84 5.63333 1.14667 6.18 1.76C6.72667 2.36 7 3.22667 7 4.36V4.8H4.92V4.22C4.92 3.3 4.55333 2.84 3.82 2.84C3.08667 2.84 2.72 3.3 2.72 4.22C2.72 4.74 2.86667 5.23333 3.16 5.7C3.45333 6.15333 3.80667 6.56667 4.22 6.94C4.64667 7.31333 5.07333 7.70667 5.5 8.12C5.92667 8.52 6.28667 9.02667 6.58 9.64C6.87333 10.24 7.02 10.9067 7.02 11.64C7.02 12.7733 6.74 13.6467 6.18 14.26C5.62 14.86 4.80667 15.16 3.74 15.16C2.67333 15.16 1.86 14.86 1.3 14.26C0.74 13.6467 0.46 12.7733 0.46 11.64V10.78H2.54V11.78C2.54 12.6867 2.92 13.14 3.68 13.14C4.44 13.14 4.82 12.6867 4.82 11.78C4.82 11.26 4.67333 10.7733 4.38 10.32C4.08667 9.85333 3.72667 9.43333 3.3 9.06C2.88667 8.68667 2.46667 8.3 2.04 7.9C1.61333 7.48667 1.25333 6.98 0.96 6.38C0.666667 5.76667 0.52 5.09333 0.52 4.36ZM8.58047 0.999999H10.7805V11.8C10.7805 12.7067 11.1605 13.16 11.9205 13.16C12.6805 13.16 13.0605 12.7067 13.0605 11.8V0.999999H15.1405V11.66C15.1405 12.7933 14.8605 13.6667 14.3005 14.28C13.7405 14.88 12.9271 15.18 11.8605 15.18C10.7938 15.18 9.98047 14.88 9.42047 14.28C8.86047 13.6667 8.58047 12.7933 8.58047 11.66V0.999999ZM20.2892 0.999999C22.4759 0.999999 23.5692 2.15333 23.5692 4.46V6.28C23.5692 8.58667 22.4759 9.74 20.2892 9.74H19.2492V15H17.0492V0.999999H20.2892ZM20.2892 3H19.2492V7.74H20.2892C20.6492 7.74 20.9159 7.64 21.0892 7.44C21.2759 7.24 21.3692 6.9 21.3692 6.42V4.32C21.3692 3.84 21.2759 3.5 21.0892 3.3C20.9159 3.1 20.6492 3 20.2892 3ZM27.1883 3V6.9H30.2083V8.9H27.1883V13H30.9883V15H24.9883V0.999999H30.9883V3H27.1883ZM39.5916 15H37.3516C37.2182 14.6 37.1516 14.0267 37.1516 13.28V11.08C37.1516 10.44 37.0382 9.98667 36.8116 9.72C36.5849 9.44 36.2182 9.3 35.7116 9.3H34.9516V15H32.7516V0.999999H36.0716C37.2049 0.999999 38.0316 1.26667 38.5516 1.8C39.0716 2.32 39.3316 3.12667 39.3316 4.22V5.32C39.3316 6.76 38.8516 7.70667 37.8916 8.16C38.8649 8.57333 39.3516 9.56667 39.3516 11.14V13.3C39.3516 14.06 39.4316 14.6267 39.5916 15ZM36.0116 3H34.9516V7.3H35.8116C36.2516 7.3 36.5782 7.18667 36.7916 6.96C37.0182 6.73333 37.1316 6.35333 37.1316 5.82V4.44C37.1316 3.48 36.7582 3 36.0116 3ZM44.4984 9.2V7.2H47.5784V11.64C47.5784 12.7733 47.2984 13.6467 46.7384 14.26C46.1784 14.86 45.3651 15.16 44.2984 15.16C43.2318 15.16 42.4184 14.86 41.8584 14.26C41.2984 13.6467 41.0184 12.7733 41.0184 11.64V4.36C41.0184 3.22667 41.2984 2.36 41.8584 1.76C42.4184 1.14667 43.2318 0.84 44.2984 0.84C45.3651 0.84 46.1784 1.14667 46.7384 1.76C47.2984 2.36 47.5784 3.22667 47.5784 4.36V5.72H45.4984V4.22C45.4984 3.3 45.1184 2.84 44.3584 2.84C43.5984 2.84 43.2184 3.3 43.2184 4.22V11.78C43.2184 12.6867 43.5984 13.14 44.3584 13.14C45.1184 13.14 45.4984 12.6867 45.4984 11.78V9.2H44.4984ZM51.1584 15V10.36L48.3784 0.999999H50.6784L52.3584 7.38L54.0384 0.999999H56.1384L53.3584 10.36V15H51.1584ZM60.4681 0.999999L62.0881 10.94L63.5881 0.999999H66.6481V15H64.5681V4.96L63.0481 15H60.9681L59.3281 5.1V15H57.4081V0.999999H60.4681Z" fill="white"/>
</symbol><symbol id="vk" viewBox="0 0 24 13">
<path fill-rule="evenodd" clip-rule="evenodd" d="M20.6554 8.26599C21.4515 9.00996 22.2918 9.70992 23.0058 10.5289C23.3212 10.8929 23.6199 11.2684 23.8483 11.6908C24.172 12.2912 23.8788 12.9519 23.3163 12.9878L19.82 12.9863C18.9182 13.0579 18.1988 12.7104 17.5939 12.1203C17.1098 11.6483 16.6615 11.146 16.1961 10.6581C16.0052 10.4587 15.8055 10.2711 15.5669 10.1228C15.0896 9.82623 14.6753 9.91703 14.4025 10.3935C14.1247 10.8781 14.0617 11.4148 14.0344 11.9549C13.997 12.7429 13.7481 12.9501 12.9211 12.9862C11.1537 13.066 9.47629 12.81 7.91806 11.9566C6.54426 11.2043 5.47894 10.1422 4.5517 8.93977C2.74634 6.59842 1.36379 4.02567 0.121208 1.38084C-0.158487 0.784951 0.0460603 0.465084 0.732957 0.453762C1.87358 0.432554 3.01405 0.434063 4.15601 0.452253C4.61959 0.458744 4.92649 0.713249 5.10549 1.13244C5.7226 2.58483 6.47771 3.96665 7.42553 5.24748C7.67794 5.58848 7.93532 5.92948 8.30184 6.16949C8.7073 6.43524 9.01602 6.34716 9.20677 5.91484C9.32781 5.64071 9.3808 5.34544 9.40808 5.05184C9.49845 4.04175 9.51035 3.03338 9.35186 2.02684C9.25455 1.39865 8.88488 0.991982 8.23 0.873108C7.89582 0.8125 7.94558 0.693475 8.10738 0.510898C8.38842 0.196012 8.65274 0 9.17964 0H13.1311C13.7532 0.117516 13.8913 0.385004 13.9765 0.984133L13.9799 5.18536C13.9731 5.4173 14.1009 6.10556 14.5374 6.25908C14.8867 6.36837 15.117 6.10088 15.3265 5.88887C16.2726 4.92776 16.9479 3.79192 17.5511 2.61578C17.8188 2.09861 18.049 1.56153 18.2721 1.02489C18.4373 0.626678 18.6967 0.430742 19.1653 0.439422L22.9684 0.442667C23.0811 0.442667 23.1952 0.444252 23.3044 0.46214C23.9453 0.566675 24.1209 0.830539 23.923 1.42952C23.6111 2.36927 23.0043 3.15241 22.411 3.93917C21.7768 4.77915 21.0985 5.59036 20.4696 6.43532C19.8917 7.20691 19.9376 7.59584 20.6554 8.26599Z" fill="white"/>
</symbol></svg>